{"title":"Roadie 2011 LIMITED DvDRip XviD Ac3 Feel-Free","uid":7076984,"size":1486660188,"categoryP":"video","categoryS":"movies","magnet":"?xt=urn:btih:beb74e0f57a5090f6836a3ba0ccac549b4beaf40&amp;dn=Roadie+2011+LIMITED+DvDRip+XviD+Ac3+Feel-Free&amp;tr=udp%3A%2F%2Ftracker.openbittorrent.com%3A80&amp;tr=udp%3A%2F%2Fopen.demonii.com%3A1337&amp;tr=udp%3A%2F%2Ftracker.coppersurfer.tk%3A6969&amp;tr=udp%3A%2F%2Fexodus.desync.com%3A6969","seeders":0,"leechers":1,"uploader":".BONE.","files":7,"time":1330881326,"description":"Genre:Drama\nLanguage:English &lt;a href=&quot;\nhttp://www.imdb.com/title/tt1450330/&quot; rel=&quot;nofollow&quot; target=&quot;_NEW&quot;&gt;\nhttp://www.imdb.com/title/tt1450330/&lt;/a&gt;\nSource:DVD Thanks!\nEncoder:Tony\n\nFormat : AVI\nFormat/Info : Audio Video Interleave\nFile size : 1.38 GiB\nDuration : 1h 35mn\nOverall bit rate : 2 065 Kbps\n\nVideo\nID : 0\nFormat : MPEG-4 Visual\nFormat profile : Advanced Simple@L5\nFormat settings, BVOP : 1\nFormat settings, QPel : No\nFormat settings, GMC : No warppoints\nFormat settings, Matrix : Default (H.263)\nCodec ID : XVID\nCodec ID/Hint : XviD\nDuration : 1h 35mn\nBit rate : 1 608 Kbps\nWidth : 640 pixels\nHeight : 360 pixels\nDisplay aspect ratio : 16:9\nFrame rate : 23.976 fps\nColor space : YUV\nChroma subsampling : 4:2:0\nBit depth : 8 bits\nScan type : Progressive\nCompression mode : Lossy\nBits/(Pixel*Frame) : 0.291\nStream size : 1.08 GiB (78%)\nWriting library : XviD 1.2.1 (UTC 2008-12-04)\n\nAudio\nID : 1\nFormat : AC-3\nFormat/Info : Audio Coding 3\nMode extension : CM (complete main)\nCodec ID : 2000\nDuration : 1h 35mn\nBit rate mode : Constant\nBit rate : 448 Kbps\nChannel(s) : 6 channels\nChannel positions : Front: L C R, Side: L R, LFE\nSampling rate : 48.0 KHz\nBit depth : 16 bits\nCompression mode : Lossy\nStream size : 307 MiB (22%)\nAlignment : Aligned on interleaves\nInterleave, duration : 42 ms (1.00 video frame)\nInterleave, preload duration : 512 ms\n\n\nPlot:\nAfter 20 years on the road with Blue Oyster Cult, Jimmy Testagros returns to his hometown to life with his ailing mother. Complications arise when he falls for an old friend, who is now married to his longtime nemesis.\n","torrent":{"xt":"urn:btih:beb74e0f57a5090f6836a3ba0ccac549b4beaf40","amp;dn":"Roadie+2011+LIMITED+DvDRip+XviD+Ac3+Feel-Free","amp;tr":["udp%3A%2F%2Ftracker.openbittorrent.com%3A80","udp%3A%2F%2Fopen.demonii.com%3A1337","udp%3A%2F%2Ftracker.coppersurfer.tk%3A6969","udp%3A%2F%2Fexodus.desync.com%3A6969"],"infoHash":"beb74e0f57a5090f6836a3ba0ccac549b4beaf40","infoHashBuffer":{"type":"Buffer","data":[190,183,78,15,87,165,9,15,104,54,163,186,12,202,197,73,180,190,175,64]},"announce":[],"urlList":[]}}